<mxfile host="Electron" modified="2024-01-04T07:59:07.240Z" agent="Mozilla/5.0 (X11; Linux x86_64) AppleWebKit/537.36 (KHTML, like Gecko) draw.io/22.1.16 Chrome/120.0.6099.109 Electron/28.1.0 Safari/537.36" etag="EP9vC8sc8XkHV1MP1CXd" version="22.1.16" type="device">
  <diagram name="Page-1" id="kO2M1vlPKPkCNsUJR2EE">
    <mxGraphModel dx="1627" dy="986" grid="1" gridSize="10" guides="1" tooltips="1" connect="1" arrows="1" fold="1" page="1" pageScale="1" pageWidth="850" pageHeight="1100" math="0" shadow="0">
      <root>
        <mxCell id="0" />
        <mxCell id="1" parent="0" />
        <mxCell id="rRjcHt_XzTSha-2fXnpK-39" value="" style="rounded=0;whiteSpace=wrap;html=1;fillColor=#fff2cc;strokeColor=#d6b656;" vertex="1" parent="1">
          <mxGeometry x="20" y="430" width="400" height="120" as="geometry" />
        </mxCell>
        <mxCell id="rRjcHt_XzTSha-2fXnpK-19" value="" style="rounded=0;whiteSpace=wrap;html=1;fillColor=#e1d5e7;strokeColor=#9673a6;" vertex="1" parent="1">
          <mxGeometry x="130" y="170" width="240" height="140" as="geometry" />
        </mxCell>
        <mxCell id="rRjcHt_XzTSha-2fXnpK-5" style="edgeStyle=orthogonalEdgeStyle;rounded=0;orthogonalLoop=1;jettySize=auto;html=1;exitX=1;exitY=0.5;exitDx=0;exitDy=0;entryX=0;entryY=0.5;entryDx=0;entryDy=0;endArrow=none;endFill=0;" edge="1" parent="1" source="rRjcHt_XzTSha-2fXnpK-1" target="rRjcHt_XzTSha-2fXnpK-4">
          <mxGeometry relative="1" as="geometry" />
        </mxCell>
        <mxCell id="rRjcHt_XzTSha-2fXnpK-1" value="bitcoind/bitcoin-qt&lt;br style=&quot;border-color: var(--border-color);&quot;&gt;全节点" style="rounded=0;whiteSpace=wrap;html=1;fillColor=#dae8fc;strokeColor=#6c8ebf;" vertex="1" parent="1">
          <mxGeometry x="140" y="210" width="120" height="90" as="geometry" />
        </mxCell>
        <mxCell id="rRjcHt_XzTSha-2fXnpK-4" value="" style="ellipse;whiteSpace=wrap;html=1;aspect=fixed;dashed=1;fillColor=#ffe6cc;strokeColor=#d79b00;" vertex="1" parent="1">
          <mxGeometry x="290" y="240" width="30" height="30" as="geometry" />
        </mxCell>
        <mxCell id="rRjcHt_XzTSha-2fXnpK-8" value="" style="edgeStyle=orthogonalEdgeStyle;rounded=0;orthogonalLoop=1;jettySize=auto;html=1;endArrow=none;endFill=0;" edge="1" parent="1" source="rRjcHt_XzTSha-2fXnpK-6" target="rRjcHt_XzTSha-2fXnpK-1">
          <mxGeometry relative="1" as="geometry" />
        </mxCell>
        <mxCell id="rRjcHt_XzTSha-2fXnpK-6" value="" style="ellipse;whiteSpace=wrap;html=1;aspect=fixed;fillColor=#dae8fc;strokeColor=#6c8ebf;" vertex="1" parent="1">
          <mxGeometry x="185" y="330" width="30" height="30" as="geometry" />
        </mxCell>
        <mxCell id="rRjcHt_XzTSha-2fXnpK-9" value="rpc端口（可选）" style="text;html=1;strokeColor=none;fillColor=none;align=center;verticalAlign=middle;whiteSpace=wrap;rounded=0;" vertex="1" parent="1">
          <mxGeometry x="264" y="210" width="96" height="20" as="geometry" />
        </mxCell>
        <mxCell id="rRjcHt_XzTSha-2fXnpK-10" value="p2p端口" style="text;html=1;strokeColor=none;fillColor=none;align=center;verticalAlign=middle;whiteSpace=wrap;rounded=0;" vertex="1" parent="1">
          <mxGeometry x="220" y="330" width="50" height="30" as="geometry" />
        </mxCell>
        <mxCell id="rRjcHt_XzTSha-2fXnpK-12" value="" style="triangle;whiteSpace=wrap;html=1;fillColor=#d5e8d4;strokeColor=#82b366;" vertex="1" parent="1">
          <mxGeometry x="50" y="445" width="110" height="90" as="geometry" />
        </mxCell>
        <mxCell id="rRjcHt_XzTSha-2fXnpK-14" value="" style="edgeStyle=orthogonalEdgeStyle;rounded=0;orthogonalLoop=1;jettySize=auto;html=1;endArrow=none;endFill=0;" edge="1" parent="1" source="rRjcHt_XzTSha-2fXnpK-13" target="rRjcHt_XzTSha-2fXnpK-12">
          <mxGeometry relative="1" as="geometry" />
        </mxCell>
        <mxCell id="rRjcHt_XzTSha-2fXnpK-16" style="edgeStyle=orthogonalEdgeStyle;rounded=0;orthogonalLoop=1;jettySize=auto;html=1;exitX=0.5;exitY=0;exitDx=0;exitDy=0;entryX=0.5;entryY=1;entryDx=0;entryDy=0;startArrow=classic;startFill=1;" edge="1" parent="1" source="rRjcHt_XzTSha-2fXnpK-13" target="rRjcHt_XzTSha-2fXnpK-6">
          <mxGeometry relative="1" as="geometry" />
        </mxCell>
        <mxCell id="rRjcHt_XzTSha-2fXnpK-13" value="" style="ellipse;whiteSpace=wrap;html=1;aspect=fixed;fillColor=#dae8fc;strokeColor=#6c8ebf;" vertex="1" parent="1">
          <mxGeometry x="185" y="475" width="30" height="30" as="geometry" />
        </mxCell>
        <mxCell id="rRjcHt_XzTSha-2fXnpK-15" value="SPV节点&lt;br&gt;基于bitcoinj库" style="text;html=1;strokeColor=none;fillColor=none;align=center;verticalAlign=middle;whiteSpace=wrap;rounded=0;" vertex="1" parent="1">
          <mxGeometry x="50" y="473.75" width="85" height="32.5" as="geometry" />
        </mxCell>
        <mxCell id="rRjcHt_XzTSha-2fXnpK-21" style="rounded=0;orthogonalLoop=1;jettySize=auto;html=1;exitX=0.5;exitY=0;exitDx=0;exitDy=0;entryX=0.5;entryY=1;entryDx=0;entryDy=0;" edge="1" parent="1" source="rRjcHt_XzTSha-2fXnpK-17" target="rRjcHt_XzTSha-2fXnpK-4">
          <mxGeometry relative="1" as="geometry" />
        </mxCell>
        <mxCell id="rRjcHt_XzTSha-2fXnpK-17" value="bitcoin-cli" style="rounded=1;whiteSpace=wrap;html=1;" vertex="1" parent="1">
          <mxGeometry x="280" y="476.25" width="115" height="30" as="geometry" />
        </mxCell>
        <mxCell id="rRjcHt_XzTSha-2fXnpK-23" style="edgeStyle=orthogonalEdgeStyle;rounded=0;orthogonalLoop=1;jettySize=auto;html=1;exitX=1;exitY=0.5;exitDx=0;exitDy=0;entryX=0;entryY=0.5;entryDx=0;entryDy=0;endArrow=none;endFill=0;" edge="1" source="rRjcHt_XzTSha-2fXnpK-24" target="rRjcHt_XzTSha-2fXnpK-25" parent="1">
          <mxGeometry relative="1" as="geometry" />
        </mxCell>
        <mxCell id="rRjcHt_XzTSha-2fXnpK-24" value="bitcoind/bitcoin-qt&lt;br&gt;全节点&lt;br&gt;(machine-a)" style="rounded=0;whiteSpace=wrap;html=1;fillColor=#dae8fc;strokeColor=#6c8ebf;" vertex="1" parent="1">
          <mxGeometry x="130" y="40" width="120" height="90" as="geometry" />
        </mxCell>
        <mxCell id="rRjcHt_XzTSha-2fXnpK-25" value="" style="ellipse;whiteSpace=wrap;html=1;aspect=fixed;dashed=1;fillColor=#ffe6cc;strokeColor=#d79b00;" vertex="1" parent="1">
          <mxGeometry x="280" y="70" width="30" height="30" as="geometry" />
        </mxCell>
        <mxCell id="rRjcHt_XzTSha-2fXnpK-26" value="rpc端口（可选）" style="text;html=1;strokeColor=none;fillColor=none;align=center;verticalAlign=middle;whiteSpace=wrap;rounded=0;" vertex="1" parent="1">
          <mxGeometry x="260" y="40" width="100" height="20" as="geometry" />
        </mxCell>
        <mxCell id="rRjcHt_XzTSha-2fXnpK-27" style="rounded=0;orthogonalLoop=1;jettySize=auto;html=1;exitX=0;exitY=0.5;exitDx=0;exitDy=0;entryX=1;entryY=0.5;entryDx=0;entryDy=0;" edge="1" source="rRjcHt_XzTSha-2fXnpK-28" target="rRjcHt_XzTSha-2fXnpK-25" parent="1">
          <mxGeometry relative="1" as="geometry" />
        </mxCell>
        <mxCell id="rRjcHt_XzTSha-2fXnpK-28" value="bitcoin-cli&lt;br&gt;(machine-b)" style="rounded=1;whiteSpace=wrap;html=1;" vertex="1" parent="1">
          <mxGeometry x="420" y="70" width="115" height="30" as="geometry" />
        </mxCell>
        <mxCell id="rRjcHt_XzTSha-2fXnpK-32" value="Electrum Server&lt;br&gt;（？是否需要额外的全节点）" style="rounded=0;whiteSpace=wrap;html=1;fillColor=#dae8fc;strokeColor=#6c8ebf;" vertex="1" parent="1">
          <mxGeometry x="80" y="670" width="160" height="90" as="geometry" />
        </mxCell>
        <mxCell id="rRjcHt_XzTSha-2fXnpK-34" value="Electrum Protocol" style="text;html=1;strokeColor=none;fillColor=none;align=center;verticalAlign=middle;whiteSpace=wrap;rounded=0;" vertex="1" parent="1">
          <mxGeometry x="280" y="690" width="100" height="20" as="geometry" />
        </mxCell>
        <mxCell id="rRjcHt_XzTSha-2fXnpK-35" style="rounded=0;orthogonalLoop=1;jettySize=auto;html=1;exitX=0;exitY=0.5;exitDx=0;exitDy=0;entryX=1;entryY=0.5;entryDx=0;entryDy=0;startArrow=classic;startFill=1;" edge="1" source="rRjcHt_XzTSha-2fXnpK-36" target="rRjcHt_XzTSha-2fXnpK-32" parent="1">
          <mxGeometry relative="1" as="geometry">
            <mxPoint x="300" y="715" as="targetPoint" />
          </mxGeometry>
        </mxCell>
        <mxCell id="rRjcHt_XzTSha-2fXnpK-36" value="Electrum Client&lt;br&gt;钱包" style="rounded=1;whiteSpace=wrap;html=1;" vertex="1" parent="1">
          <mxGeometry x="410" y="695" width="115" height="40" as="geometry" />
        </mxCell>
        <mxCell id="rRjcHt_XzTSha-2fXnpK-37" value="machine-b" style="text;html=1;strokeColor=none;fillColor=none;align=center;verticalAlign=middle;whiteSpace=wrap;rounded=0;fontStyle=1" vertex="1" parent="1">
          <mxGeometry x="177.5" y="520" width="82.5" height="30" as="geometry" />
        </mxCell>
        <mxCell id="rRjcHt_XzTSha-2fXnpK-38" value="machine-a" style="text;html=1;strokeColor=none;fillColor=none;align=center;verticalAlign=middle;whiteSpace=wrap;rounded=0;fontStyle=1" vertex="1" parent="1">
          <mxGeometry x="207.5" y="170" width="82.5" height="30" as="geometry" />
        </mxCell>
      </root>
    </mxGraphModel>
  </diagram>
</mxfile>
